# xmcd
#
# Track frame offsets: 
#        150
#        17263
#        37733
#        54337
#        81258
#        97604
#        114466
#        146186
#        163654
#        183302
#        198903
#        215939
#        238443
#        251829
#
# Disc length: 3885 seconds
#
# Revision: 2
# Processed by: cddbd v1.5.2PL0 Copyright (c) Steve Scherf et al.
# Submitted via: ExactAudioCopy v1.0b4
#
DISCID=bc0f2b0e
DTITLE=Peter Green - Legend
DYEAR=1988
DGENRE=Blues Rock
TTITLE0=Touch My Spirit
TTITLE1=Six String Guitar
TTITLE2=Proud Pinto
TTITLE3=The Clown
TTITLE4=You Won't See Me Anymore
TTITLE5=Long Way From Home
TTITLE6=Little Dreamer
TTITLE7=In The Skies
TTITLE8=Rubbing My Eyes
TTITLE9=What Am I doing Here
TTITLE10=Corner Of My Mind
TTITLE11=Carry My Love
TTITLE12=Bandit
TTITLE13=White Skies
EXTD=
EXTT0=
EXTT1=
EXTT2=
EXTT3=
EXTT4=
EXTT5=
EXTT6=
EXTT7=
EXTT8=
EXTT9=
EXTT10=
EXTT11=
EXTT12=
EXTT13=
PLAYORDER=
